<?xml version="1.0" encoding="UTF-8" standalone="no"?>
<!-- Created with Inkscape (http://www.inkscape.org/) -->

<svg
   xmlns:dc="http://purl.org/dc/elements/1.1/"
   xmlns:cc="http://creativecommons.org/ns#"
   xmlns:rdf="http://www.w3.org/1999/02/22-rdf-syntax-ns#"
   xmlns:svg="http://www.w3.org/2000/svg"
   xmlns="http://www.w3.org/2000/svg"
   xmlns:sodipodi="http://sodipodi.sourceforge.net/DTD/sodipodi-0.dtd"
   xmlns:inkscape="http://www.inkscape.org/namespaces/inkscape"
   id="svg2"
   version="1.1"
   inkscape:version="0.91 r13725"
   xml:space="preserve"
   width="320"
   height="320"
   viewBox="0 0 320 320"
   sodipodi:docname="aboutme.svg"><metadata
     id="metadata8"><rdf:RDF><cc:Work
         rdf:about=""><dc:format>image/svg+xml</dc:format><dc:type
           rdf:resource="http://purl.org/dc/dcmitype/StillImage" /></cc:Work></rdf:RDF></metadata><defs
     id="defs6"><clipPath
       clipPathUnits="userSpaceOnUse"
       id="clipPath16"><path
         d="M 0,256 256,256 256,0 0,0 0,256 Z"
         id="path18"
         inkscape:connector-curvature="0" /></clipPath><clipPath
       clipPathUnits="userSpaceOnUse"
       id="clipPath28"><path
         d="M 0,256 256,256 256,0 0,0 0,256 Z"
         id="path30"
         inkscape:connector-curvature="0" /></clipPath></defs><sodipodi:namedview
     pagecolor="#ffffff"
     bordercolor="#666666"
     borderopacity="1"
     objecttolerance="10"
     gridtolerance="10"
     guidetolerance="10"
     inkscape:pageopacity="0"
     inkscape:pageshadow="2"
     inkscape:window-width="733"
     inkscape:window-height="480"
     id="namedview4"
     showgrid="false"
     inkscape:zoom="0.7375"
     inkscape:cx="142.32718"
     inkscape:cy="160"
     inkscape:window-x="0"
     inkscape:window-y="23"
     inkscape:window-maximized="0"
     inkscape:current-layer="g10" /><g
     id="g10"
     inkscape:groupmode="layer"
     inkscape:label="logo-me_044A75_AllSizes"
     transform="matrix(1.25,0,0,-1.25,0,320)"><g
       id="g24"
       transform="matrix(1.5438875,0,0,1.5438875,-72.8318,-69.830158)"><g
         id="g26"
         clip-path="url(#clipPath28)"><g
           id="g32"
           transform="translate(178.4016,149.0509)"><path
             d="m 0,0 c -9.022,0 -14.004,-6.647 -15.064,-13.883 l 30.245,0 C 14.351,-6.998 9.489,0 0,0 m -14.834,-23.727 c 1.548,-7.591 7.832,-12.932 16.612,-12.932 4.748,0 11.625,1.774 15.664,5.932 l 7.7,-8.903 c -6.99,-7.355 -17.434,-9.366 -24.55,-9.366 -17.317,0 -30.845,12.452 -30.845,30.249 0,16.61 12.448,30.252 30.015,30.252 16.959,0 29.54,-13.049 29.54,-30.252 l 0,-4.98 -44.136,0 z m -42.597,-25.129 0,37.353 c 0,6.401 -2.842,10.078 -8.776,10.078 -5.337,0 -8.896,-3.794 -11.27,-6.528 l 0,-40.903 -15.42,0 0,37.353 c 0,6.401 -2.729,10.078 -8.659,10.078 -5.337,0 -9.021,-3.794 -11.274,-6.528 l 0,-40.903 -15.428,0 0,59.616 15.428,0 0,-7.559 c 2.612,3.088 8.545,8.304 17.797,8.304 8.187,0 13.758,-3.441 16.253,-10.439 3.435,4.981 9.84,10.439 19.104,10.439 11.15,0 17.672,-6.642 17.672,-19.458 l 0,-40.903 -15.427,0 z"
             style="fill:#ffffff;fill-opacity:1;fill-rule:nonzero;stroke:none"
             id="path34"
             inkscape:connector-curvature="0" /></g></g></g></g></svg>