<?xml version="1.0" encoding="UTF-8" standalone="no"?>
<svg
   xmlns:dc="http://purl.org/dc/elements/1.1/"
   xmlns:cc="http://creativecommons.org/ns#"
   xmlns:rdf="http://www.w3.org/1999/02/22-rdf-syntax-ns#"
   xmlns:svg="http://www.w3.org/2000/svg"
   xmlns="http://www.w3.org/2000/svg"
   xmlns:sodipodi="http://sodipodi.sourceforge.net/DTD/sodipodi-0.dtd"
   xmlns:inkscape="http://www.inkscape.org/namespaces/inkscape"
   version="1.0"
   width="256.000000pt"
   height="256.000000pt"
   viewBox="0 0 256.000000 256.000000"
   preserveAspectRatio="xMidYMid meet"
   id="svg2"
   inkscape:version="0.91 r13725"
   sodipodi:docname="deezer.svg">
  <defs
     id="defs66" />
  <sodipodi:namedview
     pagecolor="#ffffff"
     bordercolor="#666666"
     borderopacity="1"
     objecttolerance="10"
     gridtolerance="10"
     guidetolerance="10"
     inkscape:pageopacity="0"
     inkscape:pageshadow="2"
     inkscape:window-width="640"
     inkscape:window-height="480"
     id="namedview64"
     showgrid="false"
     inkscape:zoom="0.7375"
     inkscape:cx="160"
     inkscape:cy="160"
     inkscape:window-x="2411"
     inkscape:window-y="335"
     inkscape:window-maximized="0"
     inkscape:current-layer="g6" />
  <metadata
     id="metadata4">
Created by potrace 1.12, written by Peter Selinger 2001-2015
<rdf:RDF>
  <cc:Work
     rdf:about="">
    <dc:format>image/svg+xml</dc:format>
    <dc:type
       rdf:resource="http://purl.org/dc/dcmitype/StillImage" />
  </cc:Work>
</rdf:RDF>
</metadata>
  <g
     transform="translate(0.000000,256.000000) scale(0.100000,-0.100000)"
     fill="#000000"
     stroke="none"
     id="g6">
    <path
       d="M2092 1923 l3 -68 233 -3 232 -2 0 70 0 70 -235 0 -236 0 3 -67z"
       id="path8"
       style="fill:#ffffff" />
    <path
       d="M1050 1740 l0 -70 230 0 230 0 0 70 0 70 -230 0 -230 0 0 -70z"
       id="path10"
       style="fill:#ffffff" />
    <path
       d="M2090 1740 l0 -70 235 0 235 0 0 70 0 70 -235 0 -235 0 0 -70z"
       id="path12"
       style="fill:#ffffff" />
    <path
       d="M1050 1555 l0 -75 230 0 230 0 0 75 0 75 -230 0 -230 0 0 -75z"
       id="path14"
       style="fill:#ffffff" />
    <path
       d="M2094 1616 c-3 -7 -4 -40 -2 -72 l3 -59 233 -3 232 -2 0 75 0 75 -230 0 c-185 0 -232 -3 -236 -14z"
       id="path16"
       style="fill:#ffffff" />
    <path
       d="M0 1370 l0 -70 235 0 235 0 0 70 0 70 -235 0 -235 0 0 -70z"
       id="path18"
       style="fill:#ffffff" />
    <path
       d="M1050 1370 l0 -70 230 0 230 0 0 70 0 70 -230 0 -230 0 0 -70z"
       id="path20"
       style="fill:#ffffff" />
    <path
       d="M1570 1370 l0 -70 235 0 235 0 0 70 0 70 -235 0 -235 0 0 -70z"
       id="path22"
       style="fill:#ffffff" />
    <path
       d="M2090 1370 l0 -70 235 0 235 0 0 70 0 70 -235 0 -235 0 0 -70z"
       id="path24"
       style="fill:#ffffff" />
    <path
       d="M0 1190 l0 -70 235 0 235 0 0 70 0 70 -235 0 -235 0 0 -70z"
       id="path26"
       style="fill:#ffffff" />
    <path
       d="M1050 1190 l0 -70 230 0 230 0 0 70 0 70 -230 0 -230 0 0 -70z"
       id="path28"
       style="fill:#ffffff" />
    <path
       d="M1570 1190 l0 -70 235 0 235 0 0 70 0 70 -235 0 -235 0 0 -70z"
       id="path30"
       style="fill:#ffffff" />
    <path
       d="M2090 1190 l0 -70 235 0 235 0 0 70 0 70 -235 0 -235 0 0 -70z"
       id="path32"
       style="fill:#ffffff" />
    <path
       d="M0 1005 l0 -75 233 2 232 3 0 70 0 70 -232 3 -233 2 0 -75z"
       id="path34"
       style="fill:#ffffff" />
    <path
       d="M524 1066 c-3 -7 -4 -40 -2 -72 l3 -59 233 -3 232 -2 0 75 0 75 -230 0 c-185 0 -232 -3 -236 -14z"
       id="path36"
       style="fill:#ffffff" />
    <path
       d="M1050 1005 l0 -75 230 0 230 0 0 75 0 75 -230 0 -230 0 0 -75z"
       id="path38"
       style="fill:#ffffff" />
    <path
       d="M1570 1005 l0 -75 233 2 232 3 0 70 0 70 -232 3 -233 2 0 -75z"
       id="path40"
       style="fill:#ffffff" />
    <path
       d="M2094 1066 c-3 -7 -4 -40 -2 -72 l3 -59 233 -3 232 -2 0 75 0 75 -230 0 c-185 0 -232 -3 -236 -14z"
       id="path42"
       style="fill:#ffffff" />
    <path
       d="M0 820 l0 -70 235 0 235 0 0 70 0 70 -235 0 -235 0 0 -70z"
       id="path44"
       style="fill:#ffffff" />
    <path
       d="M520 820 l0 -70 235 0 235 0 0 70 0 70 -235 0 -235 0 0 -70z"
       id="path46"
       style="fill:#ffffff" />
    <path
       d="M1050 820 l0 -70 230 0 230 0 0 70 0 70 -230 0 -230 0 0 -70z"
       id="path48"
       style="fill:#ffffff" />
    <path
       d="M1570 820 l0 -70 235 0 235 0 0 70 0 70 -235 0 -235 0 0 -70z"
       id="path50"
       style="fill:#ffffff" />
    <path
       d="M2090 820 l0 -70 235 0 235 0 0 70 0 70 -235 0 -235 0 0 -70z"
       id="path52"
       style="fill:#ffffff" />
    <path
       d="M0 640 l0 -70 235 0 236 0 -3 68 -3 67 -232 3 -233 2 0 -70z"
       id="path54"
       style="fill:#ffffff" />
    <path
       d="M527 703 c-4 -3 -7 -35 -7 -70 l0 -63 235 0 235 0 0 70 0 70 -228 0 c-126 0 -232 -3 -235 -7z"
       id="path56"
       style="fill:#ffffff" />
    <path
       d="M1050 640 l0 -70 230 0 230 0 0 70 0 70 -230 0 -230 0 0 -70z"
       id="path58"
       style="fill:#ffffff" />
    <path
       d="M1570 640 l0 -70 235 0 236 0 -3 68 -3 67 -232 3 -233 2 0 -70z"
       id="path60"
       style="fill:#ffffff" />
    <path
       d="M2097 703 c-4 -3 -7 -35 -7 -70 l0 -63 235 0 235 0 0 70 0 70 -228 0 c-126 0 -232 -3 -235 -7z"
       id="path62"
       style="fill:#ffffff" />
  </g>
</svg>
