<?xml version="1.0" encoding="UTF-8" standalone="no"?>
<svg
   xmlns:dc="http://purl.org/dc/elements/1.1/"
   xmlns:cc="http://creativecommons.org/ns#"
   xmlns:rdf="http://www.w3.org/1999/02/22-rdf-syntax-ns#"
   xmlns:svg="http://www.w3.org/2000/svg"
   xmlns="http://www.w3.org/2000/svg"
   xmlns:sodipodi="http://sodipodi.sourceforge.net/DTD/sodipodi-0.dtd"
   xmlns:inkscape="http://www.inkscape.org/namespaces/inkscape"
   version="1.0"
   width="200.000000pt"
   height="200.000000pt"
   viewBox="0 0 200.000000 200.000000"
   preserveAspectRatio="xMidYMid meet"
   id="svg2"
   inkscape:version="0.91 r13725"
   sodipodi:docname="heiaheia.svg">
  <defs
     id="defs16" />
  <sodipodi:namedview
     pagecolor="#ffffff"
     bordercolor="#666666"
     borderopacity="1"
     objecttolerance="10"
     gridtolerance="10"
     guidetolerance="10"
     inkscape:pageopacity="0"
     inkscape:pageshadow="2"
     inkscape:window-width="733"
     inkscape:window-height="480"
     id="namedview14"
     showgrid="false"
     inkscape:zoom="0.944"
     inkscape:cx="125"
     inkscape:cy="125"
     inkscape:window-x="2322"
     inkscape:window-y="269"
     inkscape:window-maximized="0"
     inkscape:current-layer="g6" />
  <metadata
     id="metadata4">
Created by potrace 1.12, written by Peter Selinger 2001-2015
<rdf:RDF>
  <cc:Work
     rdf:about="">
    <dc:format>image/svg+xml</dc:format>
    <dc:type
       rdf:resource="http://purl.org/dc/dcmitype/StillImage" />
  </cc:Work>
</rdf:RDF>
</metadata>
  <g
     transform="translate(0.000000,200.000000) scale(0.100000,-0.100000)"
     fill="#000000"
     stroke="none"
     id="g6">
    <path
       d="M1521 1619 c-107 -17 -201 -35 -208 -41 -7 -6 -13 -20 -13 -32 0 -51 151 -700 166 -718 15 -16 33 -18 144 -18 104 0 130 3 141 16 16 19 61 779 47 807 -12 23 -41 21 -277 -14z"
       id="path8"
       style="fill:#ffffff" />
    <path
       d="M982 1555 c-73 -7 -136 -15 -139 -19 -3 -3 1 -95 11 -203 9 -109 16 -205 16 -213 0 -13 -26 -18 -142 -28 -78 -6 -144 -9 -147 -7 -2 3 -13 98 -23 212 -10 114 -21 209 -23 211 -3 3 -79 -1 -170 -8 l-165 -13 0 -35 c0 -63 80 -926 91 -979 13 -63 53 -109 105 -119 41 -8 225 4 236 15 5 4 0 99 -11 211 -10 113 -18 206 -17 207 4 5 287 26 291 21 3 -3 13 -95 23 -206 10 -110 20 -203 22 -205 5 -4 333 23 338 28 3 2 -80 960 -94 1088 -7 67 13 62 -202 42z"
       id="path10"
       style="fill:#ffffff" />
    <path
       d="M1534 711 c-55 -25 -84 -73 -84 -141 0 -107 58 -165 165 -165 108 0 165 58 165 167 0 69 -26 113 -83 138 -53 25 -110 25 -163 1z"
       id="path12"
       style="fill:#ffffff" />
  </g>
</svg>
