<?xml version="1.0" encoding="UTF-8" standalone="no"?>
<svg
   xmlns:dc="http://purl.org/dc/elements/1.1/"
   xmlns:cc="http://creativecommons.org/ns#"
   xmlns:rdf="http://www.w3.org/1999/02/22-rdf-syntax-ns#"
   xmlns:svg="http://www.w3.org/2000/svg"
   xmlns="http://www.w3.org/2000/svg"
   xmlns:sodipodi="http://sodipodi.sourceforge.net/DTD/sodipodi-0.dtd"
   xmlns:inkscape="http://www.inkscape.org/namespaces/inkscape"
   version="1.0"
   width="256.000000pt"
   height="225.000000pt"
   viewBox="0 0 256.000000 225.000000"
   preserveAspectRatio="xMidYMid meet"
   id="svg2"
   inkscape:version="0.91 r13725"
   sodipodi:docname="todoist.svg">
  <defs
     id="defs14" />
  <sodipodi:namedview
     pagecolor="#ffffff"
     bordercolor="#666666"
     borderopacity="1"
     objecttolerance="10"
     gridtolerance="10"
     guidetolerance="10"
     inkscape:pageopacity="0"
     inkscape:pageshadow="2"
     inkscape:window-width="640"
     inkscape:window-height="480"
     id="namedview12"
     showgrid="false"
     inkscape:zoom="0.83911111"
     inkscape:cx="160"
     inkscape:cy="140.625"
     inkscape:window-x="2252"
     inkscape:window-y="274"
     inkscape:window-maximized="0"
     inkscape:current-layer="g6" />
  <metadata
     id="metadata4">
Created by potrace 1.12, written by Peter Selinger 2001-2015
<rdf:RDF>
  <cc:Work
     rdf:about="">
    <dc:format>image/svg+xml</dc:format>
    <dc:type
       rdf:resource="http://purl.org/dc/dcmitype/StillImage" />
  </cc:Work>
</rdf:RDF>
</metadata>
  <g
     transform="translate(0.000000,225.000000) scale(0.100000,-0.100000)"
     fill="#000000"
     stroke="none"
     id="g6">
    <path
       d="M156 1960 c-27 -5 -51 -19 -73 -44 -29 -31 -33 -42 -33 -91 0 -49 4 -60 33 -91 43 -47 77 -53 310 -53 163 -1 179 -3 197 -21 20 -20 20 -33 20 -672 0 -612 2 -656 19 -693 10 -23 33 -53 50 -68 28 -23 41 -27 99 -27 81 0 122 21 152 79 20 39 20 56 20 699 0 552 2 661 14 678 13 17 32 19 238 25 183 4 229 8 255 22 42 22 63 64 63 126 0 65 -39 113 -104 130 -51 13 -1194 14 -1260 1z"
       id="path8"
       style="fill:#ffffff" />
    <path
       d="M1625 1947 c-4 -8 -2 -24 3 -34 18 -34 23 -91 11 -135 -26 -103 -31 -94 61 -102 170 -14 233 -39 309 -121 48 -52 82 -119 108 -215 14 -52 18 -103 18 -250 0 -207 -10 -260 -69 -387 -49 -102 -101 -155 -194 -195 l-77 -33 -355 -5 -355 -5 -6 -85 c-4 -47 -14 -102 -24 -124 -10 -23 -13 -42 -7 -48 5 -5 190 -8 448 -6 l439 4 73 26 c117 43 172 78 257 164 68 67 90 97 133 185 81 163 96 241 96 494 0 249 -17 341 -90 494 -38 77 -61 110 -135 186 -146 151 -246 193 -485 202 -134 5 -154 4 -159 -10z"
       id="path10"
       style="fill:#ffffff" />
  </g>
</svg>
