<?xml version="1.0" encoding="UTF-8" standalone="no"?>
<svg
   xmlns:dc="http://purl.org/dc/elements/1.1/"
   xmlns:cc="http://creativecommons.org/ns#"
   xmlns:rdf="http://www.w3.org/1999/02/22-rdf-syntax-ns#"
   xmlns:svg="http://www.w3.org/2000/svg"
   xmlns="http://www.w3.org/2000/svg"
   xmlns:sodipodi="http://sodipodi.sourceforge.net/DTD/sodipodi-0.dtd"
   xmlns:inkscape="http://www.inkscape.org/namespaces/inkscape"
   version="1.0"
   width="400.000000pt"
   height="440.000000pt"
   viewBox="0 0 400.000000 440.000000"
   preserveAspectRatio="xMidYMid meet"
   id="svg2"
   inkscape:version="0.91 r13725"
   sodipodi:docname="trakt.svg">
  <defs
     id="defs12" />
  <sodipodi:namedview
     pagecolor="#ffffff"
     bordercolor="#666666"
     borderopacity="1"
     objecttolerance="10"
     gridtolerance="10"
     guidetolerance="10"
     inkscape:pageopacity="0"
     inkscape:pageshadow="2"
     inkscape:window-width="640"
     inkscape:window-height="480"
     id="namedview10"
     showgrid="false"
     inkscape:zoom="0.42909091"
     inkscape:cx="250"
     inkscape:cy="275"
     inkscape:window-x="2420"
     inkscape:window-y="352"
     inkscape:window-maximized="0"
     inkscape:current-layer="g6" />
  <metadata
     id="metadata4">
Created by potrace 1.12, written by Peter Selinger 2001-2015
<rdf:RDF>
  <cc:Work
     rdf:about="">
    <dc:format>image/svg+xml</dc:format>
    <dc:type
       rdf:resource="http://purl.org/dc/dcmitype/StillImage" />
  </cc:Work>
</rdf:RDF>
</metadata>
  <g
     transform="translate(0.000000,440.000000) scale(0.100000,-0.100000)"
     fill="#000000"
     stroke="none"
     id="g6">
    <path
       d="M375 4388 c-11 -6 -26 -18 -32 -26 -19 -23 -16 -79 5 -99 9 -10 78 -52 152 -94 183 -104 1070 -602 1198 -673 75 -42 102 -62 98 -73 -3 -8 -6 -19 -6 -24 0 -5 -312 -9 -778 -9 -864 0 -841 2 -920 -66 -24 -20 -53 -55 -65 -78 l-22 -41 0 -1510 0 -1510 22 -41 c12 -22 38 -57 59 -77 75 -72 -69 -67 1914 -67 2006 0 1844 -6 1925 75 81 80 75 -45 75 1624 0 1473 -1 1486 -21 1531 -25 55 -71 105 -124 133 -40 22 -43 22 -850 27 -801 5 -810 5 -813 25 -2 15 12 28 60 54 35 19 297 165 583 326 286 161 587 329 668 375 81 45 152 91 157 101 29 53 -2 116 -60 125 -31 4 -68 -13 -330 -161 -162 -92 -425 -240 -585 -329 -159 -90 -367 -206 -461 -260 -244 -137 -186 -147 -653 115 -207 116 -430 242 -496 280 -414 235 -642 359 -660 359 -11 0 -29 -6 -40 -12z m3117 -1338 c57 -16 120 -70 153 -130 l30 -55 0 -915 c0 -910 0 -915 -21 -960 -24 -51 -90 -115 -140 -136 -28 -12 -265 -14 -1505 -14 -1088 0 -1482 3 -1510 12 -55 16 -118 73 -145 132 l-24 51 0 916 0 917 28 52 c30 59 81 105 138 125 33 12 284 14 1499 15 976 0 1472 -4 1497 -10z m-383 -2510 c59 -30 84 -78 79 -151 -4 -52 -9 -64 -40 -95 -59 -59 -147 -64 -213 -12 -57 44 -72 140 -32 199 51 76 130 98 206 59z m490 0 c139 -70 90 -291 -65 -293 -92 -1 -154 56 -162 147 -3 41 1 58 20 86 52 77 130 100 207 60z m-2921 -85 c53 -62 13 -155 -66 -155 -73 0 -119 65 -92 131 26 62 113 75 158 24z m600 10 c39 -32 48 -74 28 -114 -20 -37 -44 -51 -88 -51 -86 0 -126 105 -62 161 42 36 83 37 122 4z"
       id="path8"
       style="fill:#ffffff" />
  </g>
</svg>
