<?xml version="1.0" encoding="UTF-8" standalone="no"?>
<svg
   xmlns:dc="http://purl.org/dc/elements/1.1/"
   xmlns:cc="http://creativecommons.org/ns#"
   xmlns:rdf="http://www.w3.org/1999/02/22-rdf-syntax-ns#"
   xmlns:svg="http://www.w3.org/2000/svg"
   xmlns="http://www.w3.org/2000/svg"
   xmlns:sodipodi="http://sodipodi.sourceforge.net/DTD/sodipodi-0.dtd"
   xmlns:inkscape="http://www.inkscape.org/namespaces/inkscape"
   version="1.0"
   width="512.000000pt"
   height="512.000000pt"
   viewBox="15 15 80.000000 80.000000"
   preserveAspectRatio="xMidYMid meet"
   xml:space="preserve"
   id="svg2"
   inkscape:version="0.91 r13725"
   sodipodi:docname="whatsapp.svg"><metadata
     id="metadata16"><rdf:RDF><cc:Work
         rdf:about=""><dc:format>image/svg+xml</dc:format><dc:type
           rdf:resource="http://purl.org/dc/dcmitype/StillImage" /></cc:Work></rdf:RDF></metadata><sodipodi:namedview
     pagecolor="#ffffff"
     bordercolor="#666666"
     borderopacity="1"
     objecttolerance="10"
     gridtolerance="10"
     guidetolerance="10"
     inkscape:pageopacity="0"
     inkscape:pageshadow="2"
     inkscape:window-width="640"
     inkscape:window-height="480"
     id="namedview14"
     showgrid="false"
     inkscape:zoom="0.36875"
     inkscape:cx="320"
     inkscape:cy="320"
     inkscape:window-x="1949"
     inkscape:window-y="340"
     inkscape:window-maximized="0"
     inkscape:current-layer="g20" /><defs
     id="defs6"><clipPath
       id="clipPath16"><path
         d="m 0,87.642 86.965,0 L 86.965,0 0,0 0,87.642 z"
         id="path6" /></clipPath></defs><g
     transform="matrix(1.25,0,0,-1.25,0,109.55263)"
     id="g10"><g
       id="g12"><g
         clip-path="url(#clipPath16)"
         id="g14"><g
           transform="translate(58.1133,37.793)"
           id="g20"><path
             d="m 0,0 c -0.752,0.412 -4.45,2.407 -5.143,2.689 -0.693,0.282 -1.199,0.429 -1.738,-0.32 -0.54,-0.746 -2.074,-2.417 -2.539,-2.912 -0.467,-0.495  -0.916,-0.541 -1.668,-0.128 -0.752,0.411 -3.192,1.314 -6.02,4.033 -2.202,2.116 -3.646,4.683 -4.065,5.467 -0.419,0.783 -0.003,1.183 0.395,1.55 0.358,0.331  0.8,0.867 1.2,1.3 0.399,0.433 0.54,0.747 0.814,1.249 0.275,0.502 0.164,0.954 -0.013,1.344 -0.178,0.391 -1.569,4.219 -2.15,5.777 -0.581,1.557 -1.229,1.326  -1.676,1.343 -0.447,0.017 -0.956,0.1 -1.467,0.119 -0.511,0.019 -1.348,-0.141 -2.079,-0.883 -0.731,-0.739 -2.78,-2.519 -2.921,-6.29 -0.141,-3.77 2.467,-7.517  2.831,-8.041 0.364,-0.526 4.982,-8.699 12.657,-12.061 7.676,-3.36 7.715,-2.336 9.124,-2.26 1.41,0.074 4.604,1.684 5.31,3.449 0.706,1.764 0.763,3.299 0.583,3.626  C 1.255,-0.623 0.751,-0.411 0,0 m -14.076,-18.17 c -5.076,0 -9.803,1.523 -13.75,4.132 l -9.604,-3.074 3.122,9.28 c -2.992,4.121 -4.759,9.184 -4.759,14.653  0,13.782 11.211,24.993 24.991,24.993 13.781,0 24.992,-11.211 24.992,-24.993 0,-13.78 -11.211,-24.991 -24.992,-24.991 m 0,55.013 c -16.58,0 -30.021,-13.441  -30.021,-30.022 0,-5.672 1.575,-10.976 4.308,-15.502 l -5.419,-16.106 16.622,5.321 c 4.301,-2.378 9.247,-3.734 14.51,-3.734 16.58,0 30.022,13.442 30.022,30.021  0,16.581 -13.442,30.022 -30.022,30.022"
             style="fill:#ffffff;fill-opacity:1;fill-rule:evenodd;stroke:none"
             id="path12" /></g></g></g></g></svg>